Coordinates
version=1
nRows=17
nColumns=34
inDegrees=yes

Units are S.I. units (second, meters, Newtons, ...)
If the header above contains a line with 'inDegrees', this indicates whether rotational values are in degrees (yes) or radians (no).

endheader
time	pelvis_tilt	pelvis_list	pelvis_rotation	pelvis_tx	pelvis_ty	pelvis_tz	hip_flexion_r	hip_adduction_r	hip_rotation_r	knee_angle_r	ankle_angle_r	subtalar_angle_r	mtp_angle_r	hip_flexion_l	hip_adduction_l	hip_rotation_l	knee_angle_l	ankle_angle_l	subtalar_angle_l	mtp_angle_l	lumbar_extension	lumbar_bending	lumbar_rotation	arm_flex_r	arm_add_r	arm_rot_r	elbow_flex_r	pro_sup_r	arm_flex_l	arm_add_l	arm_rot_l	elbow_flex_l	pro_sup_l
      5.15000000	     -4.15312619	      3.18683184	     26.47901930	      0.52198510	      0.77980187	     -0.30650813	     42.85624630	      3.65959477	      8.50176062	     82.19992276	     29.62742539	    -32.65349389	      0.00000000	     36.41334767	      9.43643883	      3.06927968	     75.92834787	     35.39731210	    -25.44353322	      0.00000000	    -23.45896281	     -1.67617350	      5.98556144	     19.44926961	     -7.67043831	     -3.19713560	     26.36102504	     80.94211869	     19.27622030	     -7.05537085	     32.19345454	     16.27094367	     74.38476690
      5.16666670	     -3.81711654	      2.98109498	     26.80168077	      0.51688693	      0.77719954	     -0.30223145	     42.84306243	      3.69128215	      7.85899851	     81.94724371	     29.72187678	    -32.04707425	      0.00000000	     36.76751230	      9.15075901	      3.45920815	     76.23394720	     35.61477963	    -24.59265122	      0.00000000	    -24.43303928	     -1.32282582	      6.22349131	     16.21864222	     -8.84945675	     -3.03000140	     24.31613137	     82.82030601	     16.67677313	     -9.06898929	     37.54967827	     15.61769855	     73.16919703
      5.18333330	     -3.51990709	      2.81623268	     26.42541603	      0.50091045	      0.78441810	     -0.29287427	     43.51836793	      4.12807586	      7.81435342	     80.96317895	     28.59313100	    -32.20281560	      0.00000000	     38.00214778	      8.60959572	      3.49102431	     75.89111965	     33.94986429	    -25.20143248	      0.00000000	    -25.83576521	     -1.15807398	      6.93543394	     13.50776743	     -9.77836522	     -3.28594135	     23.22014773	     82.78878974	     14.35769031	    -10.14988543	     37.46503912	     15.74229304	     72.62913601
      5.20000000	     -3.47529603	      2.85702855	     26.25995937	      0.49847260	      0.78918178	     -0.29107775	     44.07225597	      4.08055333	      7.72528693	     80.17301566	     26.38469518	    -32.35066688	      0.00000000	     38.38053846	      8.33979435	      3.37065564	     75.03230238	     32.31681627	    -25.45885417	      0.00000000	    -26.56329516	     -1.15709722	      6.69607159	     10.49016045	    -10.13803841	     -4.63865436	     23.21847382	     81.99359187	     10.88499560	    -11.37574349	     35.55553921	     17.14165965	     69.87736456
      5.21666670	     -3.56228386	      2.74014281	     26.46483904	      0.50106334	      0.79718680	     -0.29144468	     43.72488563	      3.98833979	      7.41201994	     78.38873304	     25.05692210	    -32.82971940	      0.00000000	     38.28327892	      8.27509133	      3.66254651	     73.65170219	     31.28170100	    -25.49277738	      0.00000000	    -26.29752508	     -1.08574866	      6.80111677	      6.72299059	    -10.22523367	     -5.24209039	     22.63394508	     81.56095722	      7.71563090	    -12.05302642	     34.82239082	     17.10834701	     69.02356516
      5.23333330	     -3.36528365	      2.70587002	     26.20767934	      0.49181628	      0.80884905	     -0.28856836	     43.08375825	      4.09620354	      7.54987843	     76.10564236	     22.95056087	    -33.65520510	      0.00000000	     37.86357526	      8.02967776	      3.71687741	     71.74186409	     29.17685775	    -26.23858005	      0.00000000	    -26.51616444	     -0.82352853	      6.82933035	      3.68409701	    -10.19545633	     -7.58069850	     22.89904901	     79.87068563	      4.48832083	    -12.21596050	     31.17286943	     17.96985253	     66.60025131
      5.25000000	     -3.10440086	      2.40675149	     26.21596701	      0.49639218	      0.82104707	     -0.28923431	     41.68538798	      4.24665232	      7.35904368	     73.33176616	     21.96468752	    -33.15964997	      0.00000000	     36.51654001	      7.64820376	      4.22186986	     69.32313480	     26.92497250	    -27.03011961	      0.00000000	    -26.05568654	     -0.24175701	      6.78066040	      0.53387743	    -10.09357909	     -7.90538732	     22.16516305	     79.51776182	      1.36319385	    -12.28817054	     30.65456685	     17.31597236	     66.25523288
      5.26666670	     -3.44548803	      2.20670648	     26.43742992	      0.50299921	      0.82446473	     -0.29223659	     40.29436363	      4.08658969	      7.38415661	     70.69842576	     22.37064685	    -32.54851958	      0.00000000	     35.38474249	      7.58172832	      4.54453666	     66.85576775	     25.94445074	    -26.92958530	      0.00000000	    -24.18814369	      0.00513438	      6.27496653	     -3.21890344	     -9.51313280	     -9.76421509	     22.01089052	     77.89137276	     -2.70907014	    -12.37418739	     27.46120640	     16.59630555	     64.83113060
      5.28333330	     -3.04716818	      2.02918066	     26.51416982	      0.50111547	      0.84660502	     -0.29096207	     37.32633913	      4.21314977	      7.45351494	     66.51948777	     21.46247915	    -32.59287819	      0.00000000	     33.01541787	      7.19038574	      5.09591239	     63.20256897	     24.33952386	    -26.94267790	      0.00000000	    -23.26390251	      0.64338981	      5.49541385	     -5.86193402	     -9.21557687	    -10.00587831	     20.99199010	     77.45684434	     -5.94721560	    -12.11519677	     26.92140819	     15.21364809	     64.65284980
      5.30000000	     -2.87273221	      1.93567099	     26.81318622	      0.50456848	      0.86130078	     -0.29061242	     34.14873666	      4.14103717	      7.35199398	     62.06463466	     19.82437619	    -32.89801994	      0.00000000	     30.50174597	      6.83834149	      5.49380037	     58.90277952	     22.03269247	    -26.92968198	      0.00000000	    -21.89939911	      1.02031479	      4.37733337	     -8.30169971	     -8.77492298	    -10.28434786	     20.17988715	     76.94392128	     -9.03141310	    -11.96733587	     26.16698617	     13.67080096	     64.45558773
      5.31666670	     -3.25358404	      1.52482517	     27.26340262	      0.50906138	      0.86428329	     -0.29105150	     32.75140540	      3.96340028	      7.08508559	     58.22861377	     17.76749685	    -33.78036716	      0.00000000	     29.18765905	      6.43235703	      5.86106598	     55.35060568	     20.55529318	    -26.96854807	      0.00000000	    -19.70107718	      1.38115108	      2.96355993	    -11.00524775	     -8.24779488	    -10.53448351	     20.15655618	     76.39609100	    -12.25659229	    -12.12544688	     25.13129141	     13.05374862	     64.29098947
      5.33333330	     -4.05552268	      1.00195555	     27.78964789	      0.50312101	      0.87199073	     -0.28822883	     32.44699951	      3.65031084	      6.50908709	     55.48935522	     16.79981360	    -33.51508653	      0.00000000	     29.02035979	      6.23447263	      6.23376803	     52.45855301	     19.13942130	    -26.81936369	      0.00000000	    -17.67924314	      1.58820616	      1.68564608	    -13.15639245	     -7.93343384	    -10.64386685	     20.66828842	     76.23325324	    -14.65577776	    -12.25245174	     24.64165934	     12.83171658	     64.27017218
      5.35000000	     -5.19657929	      0.26863868	     27.95695801	      0.50604997	      0.87278627	     -0.28924950	     32.66005141	      3.41268050	      6.01086549	     53.06828856	     15.40369065	    -34.01426311	      0.00000000	     29.59788448	      5.83795430	      6.09257602	     50.22262416	     17.60640174	    -26.92471683	      0.00000000	    -15.16395255	      1.78409045	      0.54498358	    -15.52650791	     -7.83141228	    -11.09148357	     21.77128341	     76.03036812	    -18.02119888	    -12.38159014	     20.80744091	     14.66293930	     64.23242089
      5.36666670	     -6.38027704	     -0.42195991	     28.23476968	      0.50190889	      0.88761297	     -0.28641862	     32.69381749	      3.06563494	      5.50783778	     49.88506730	     14.03970142	    -33.67888000	      0.00000000	     29.94847734	      5.46546468	      5.96911302	     47.14693729	     15.19322745	    -26.78837973	      0.00000000	    -12.74511320	      1.76452794	     -0.20716143	    -17.20462590	     -7.63560023	    -10.98587855	     22.40405978	     76.19062858	    -19.47765489	    -12.35553808	     20.44123724	     14.64260857	     64.40559722
      5.38333330	     -7.49106632	     -1.24244739	     28.41754629	      0.50208891	      0.89285298	     -0.28650704	     32.77924674	      2.82213883	      4.84257357	     46.63838394	     12.45656238	    -33.69585663	      0.00000000	     30.10180024	      5.02271070	      5.95506855	     44.03959682	     13.12432163	    -26.47024439	      0.00000000	    -10.42163585	      1.92926355	     -0.75750310	    -19.02571164	     -7.60951326	    -10.82947728	     23.89990416	     76.55298576	    -21.03897052	    -12.46059345	     19.83296471	     15.93008613	     64.63557716
      5.40000000	     -7.97002932	     -1.70650029	     28.38362773	      0.50263019	      0.90370858	     -0.28483846	     31.91481620	      2.77722463	      4.32853483	     42.98217716	     10.57229869	    -33.61488463	      0.00000000	     29.56501250	      4.41273909	      5.64112521	     41.23310508	     11.29190927	    -25.80169439	      0.00000000	     -9.23209337	      1.98696188	     -1.08848976	    -20.56923888	     -7.33808130	    -11.41933424	     25.84329205	     78.35096223	    -22.89189532	    -12.42521358	     16.33405373	     19.39408640	     65.65883823
      5.41666670	     -8.47465173	     -2.15215006	     28.37007750	      0.50603965	      0.91681142	     -0.28555888	     30.97605363	      2.62155663	      3.57782442	     39.38776277	      9.40880681	    -32.69739019	      0.00000000	     28.68526176	      3.84014783	      5.40671757	     37.89588815	      9.51041808	    -24.47157538	      0.00000000	     -7.63535293	      1.99211398	     -1.54115494	    -21.54218286	     -7.15593370	    -11.34479821	     26.06475541	     78.52702818	    -23.53924468	    -12.27980253	     16.20979773	     19.77367696	     65.80226992
